<svg viewBox="0 0 800 800" xmlns="http://www.w3.org/2000/svg">
  <defs>
    <!-- Define the code icon as a pattern that repeats -->
    <pattern id="codePattern" x="0" y="0" width="200" height="200" patternUnits="userSpaceOnUse">
      <!-- Random offset icons for scattered effect -->
      <g opacity="0.3">
        <g transform="translate(20, 30) scale(3.6)">
          <path fill-rule="evenodd" clip-rule="evenodd" d="M14.9523 6.2635L10.4523 18.2635L9.04784 17.7368L13.5478 5.73682L14.9523 6.2635ZM19.1894 12.0001L15.9698 8.78042L17.0304 7.71976L21.3108 12.0001L17.0304 16.2804L15.9698 15.2198L19.1894 12.0001ZM8.03032 15.2198L4.81065 12.0002L8.03032 8.78049L6.96966 7.71983L2.68933 12.0002L6.96966 16.2805L8.03032 15.2198Z" fill="white"></path>
        </g>
      </g>
      <g opacity="0.25">
        <g transform="translate(110, 120) scale(2.7) rotate(15 12 12)">
          <path fill-rule="evenodd" clip-rule="evenodd" d="M14.9523 6.2635L10.4523 18.2635L9.04784 17.7368L13.5478 5.73682L14.9523 6.2635ZM19.1894 12.0001L15.9698 8.78042L17.0304 7.71976L21.3108 12.0001L17.0304 16.2804L15.9698 15.2198L19.1894 12.0001ZM8.03032 15.2198L4.81065 12.0002L8.03032 8.78049L6.96966 7.71983L2.68933 12.0002L6.96966 16.2805L8.03032 15.2198Z" fill="white"></path>
        </g>
      </g>
    </pattern>
  </defs>
  
  <!-- Apply the pattern to fill the entire SVG -->
  <rect width="800" height="800" fill="url(#codePattern)"/>
</svg>